<?xml version="1.0" encoding="utf-8"?>
<svg version="1.1" xmlns:xlink="http://www.w3.org/1999/xlink" width="48px" height="32px" xmlns="http://www.w3.org/2000/svg">
  <g transform="matrix(1 0 0 1 -1283 -78 )">
    <path d="M 1283.5 82  A 3.5 3.5 0 0 1 1287 78.5 L 1327 78.5  A 3.5 3.5 0 0 1 1330.5 82 L 1330.5 106  A 3.5 3.5 0 0 1 1327 109.5 L 1287 109.5  A 3.5 3.5 0 0 1 1283.5 106 L 1283.5 82  Z " fill-rule="nonzero" fill="#0099ff" stroke="none" fill-opacity="0.0980392156862745" />
    <path d="M 1283.5 82  A 3.5 3.5 0 0 1 1287 78.5 L 1327 78.5  A 3.5 3.5 0 0 1 1330.5 82 L 1330.5 106  A 3.5 3.5 0 0 1 1327 109.5 L 1287 109.5  A 3.5 3.5 0 0 1 1283.5 106 L 1283.5 82  Z " stroke-width="1" stroke="#a7d2f9" fill="none" />
  </g>
</svg>